# xmcd
#
# Track frame offsets: 
#        150
#        16120
#        31707
#        51141
#        70147
#        84250
#        108937
#        128545
#        149766
#        165233
#        183279
#        201650
#        220112
#        237041
#        256267
#        277110
#        292072
#        311562
#        326961
#        344754
#
# Disc length: 4816 seconds
#
# Revision: 0
# Processed by: cddbd v1.5.2PL0 Copyright (c) Steve Scherf et al.
# Submitted via: ExactAudioCopy v0.95b4
#
DISCID=2912ce14
DTITLE=Enrique Iglesias - CD 1
DYEAR=1900
DGENRE=Disco
TTITLE0=Be With Yuo
TTITLE1=Escape
TTITLE2=Cold I Have This Kiss Forever*
TTITLE3=Hero
TTITLE4=Esperanza
TTITLE5=Si To Te Vaz
TTITLE6=You`re My#1
TTITLE7=If The World Crashes Down
TTITLE8=Rhythm Divine
TTITLE9=Sad Eves
TTITLE10=Love To See You Cry
TTITLE11=I Have Alwayse Loved You 
TTITLE12=No Apaques La Luz
TTITLE13=Si Juras Regraser
TTITLE14=I`m Your Man
TTITLE15=Bailamos(Grove House Edit)
TTITLE16=Nunca Te Olividart
TTITLE17=Only You
TTITLE18=Cosas Del Amor
TTITLE19=I Will Survive
EXTD=
EXTT0=
EXTT1=
EXTT2=
EXTT3=
EXTT4=
EXTT5=
EXTT6=
EXTT7=
EXTT8=
EXTT9=
EXTT10=
EXTT11=
EXTT12=
EXTT13=
EXTT14=
EXTT15=
EXTT16=
EXTT17=
EXTT18=
EXTT19=
PLAYORDER=
